<?xml version="1.0" encoding="utf-8"?>
<!-- Generator: Adobe Illustrator 16.0.0, SVG Export Plug-In . SVG Version: 6.00 Build 0)  -->
<!DOCTYPE svg PUBLIC "-//W3C//DTD SVG 1.1//EN" "http://www.w3.org/Graphics/SVG/1.1/DTD/svg11.dtd">
<svg version="1.1" id="Layer_1" xmlns="http://www.w3.org/2000/svg" xmlns:xlink="http://www.w3.org/1999/xlink" x="0px" y="0px"
	 width="150px" height="50px" viewBox="0 0 150 50" enable-background="new 0 0 150 50" xml:space="preserve">
<g>
	<path fill="#48a2d9" d="M50.392,18.864c-0.042-3.457-1.925-6.628-4.94-8.32L34.304,4.286c-3.015-1.692-6.703-1.647-9.676,0.117
		L13.634,10.93c-2.973,1.765-4.778,4.981-4.736,8.438l0.155,12.784c0.042,3.457,1.925,6.629,4.939,8.32l11.149,6.259
		c3.014,1.691,6.703,1.647,9.675-0.117l10.994-6.527c2.973-1.765,4.778-4.981,4.736-8.438L50.392,18.864z M36.619,24.271
		c-0.364,1.012-0.755,2.052-1.173,3.12c-0.418,1.068-0.816,2.094-1.193,3.077c-0.378,0.982-0.735,1.866-1.072,2.649
		c-0.337,0.784-0.613,1.389-0.829,1.816c-0.486,0.94-1.052,1.581-1.699,1.923c-0.647,0.343-1.254,0.541-1.821,0.599
		c-0.674,0.057-1.349-0.058-2.023-0.342c-0.215-0.513-0.505-1.231-0.87-2.158c-0.364-0.926-0.769-1.959-1.213-3.098
		c-0.444-1.141-0.917-2.337-1.416-3.591c-0.5-1.253-0.971-2.458-1.417-3.611c-0.444-1.154-0.849-2.201-1.213-3.142
		c-0.364-0.94-0.641-1.667-0.829-2.179c-0.108-0.257-0.217-0.513-0.324-0.77c-0.108-0.256-0.203-0.498-0.283-0.727
		c-0.108-0.256-0.202-0.513-0.283-0.77c0.809-0.199,1.578-0.27,2.306-0.213c0.62,0.057,1.247,0.25,1.881,0.577
		c0.633,0.328,1.139,0.947,1.518,1.859c0.107,0.314,0.263,0.734,0.465,1.26c0.202,0.528,0.418,1.105,0.647,1.731
		c0.229,0.627,0.472,1.282,0.728,1.966s0.506,1.368,0.749,2.051c0.566,1.567,1.186,3.262,1.861,5.086
		c0.646-1.824,1.267-3.519,1.86-5.086c0.243-0.684,0.499-1.368,0.769-2.051c0.269-0.684,0.518-1.339,0.748-1.966
		c0.101-0.277,0.197-0.541,0.29-0.799h4.854C37.318,22.346,36.979,23.273,36.619,24.271z M37.733,19.892
		c-0.971,0.511-3.997,0.275-4.412,0.184c0,0,1.56-5.996,7.162-4.569C39.595,16.449,39.815,18.874,37.733,19.892z"/>
	<g>
		<path d="M66.718,32.915c-0.386,1.066-1.112,1.293-2.269,1.293c-1.157,0-1.883-0.227-2.269-1.293l-4.583-12.888
			c-0.159-0.431-0.227-0.794-0.227-1.089c0-1.248,0.953-1.657,1.883-1.657c0.999,0,1.543,0.522,1.883,1.634l3.358,11.118h0.045
			l3.495-11.118c0.34-1.112,0.885-1.634,1.747-1.634c0.93,0,1.883,0.409,1.883,1.657c0,0.295-0.068,0.658-0.227,1.089L66.718,32.915
			z"/>
		<path d="M76.004,28.604c0,1.747,1.135,3.018,3.063,3.018c2.496,0,2.496-1.634,3.834-1.634c0.795,0,1.361,0.681,1.361,1.294
			c0,1.996-3.199,2.927-5.195,2.927c-4.628,0-6.375-3.131-6.375-6.013c0-3.857,2.337-6.444,6.262-6.444c3.813,0,5.99,2.7,5.99,5.422
			c0,1.135-0.34,1.43-1.451,1.43H76.004z M81.813,26.697c-0.182-1.52-1.316-2.631-2.791-2.631c-1.656,0-2.654,1.021-3.018,2.631
			H81.813z"/>
		<path d="M89.078,24.225h-0.566c-0.932,0-1.316-0.363-1.316-1.089s0.385-1.089,1.316-1.089h0.566v-2.02
			c0-1.089,0.658-1.656,1.656-1.656s1.656,0.567,1.656,1.656v2.02h0.998c0.977,0,1.498,0.295,1.498,1.089
			c0,0.794-0.521,1.089-1.498,1.089h-0.998v6.625c0,0.5,0.273,0.771,0.863,0.771h0.477c0.725,0,1.156,0.409,1.156,1.112
			c0,0.953-0.816,1.475-2.404,1.475c-2.406,0-3.404-0.998-3.404-2.949V24.225z"/>
		<path d="M97.748,18.938c0-1.089,0.658-1.657,1.656-1.657s1.656,0.567,1.656,1.657v4.561h0.045
			c0.658-0.862,1.816-1.747,3.699-1.747c1.996,0,4.176,0.998,4.176,4.356v6.444c0,0.885-0.363,1.656-1.656,1.656
			c-1.295,0-1.658-0.771-1.658-1.656v-5.786c0-1.338-0.656-2.292-2.086-2.292c-1.158,0-2.52,0.953-2.52,2.61v5.468
			c0,0.885-0.363,1.656-1.656,1.656s-1.656-0.771-1.656-1.656V18.938z"/>
		<path d="M114.59,17.191c0.951,0,1.723,0.771,1.723,1.724s-0.771,1.725-1.723,1.725c-0.953,0-1.725-0.771-1.725-1.725
			S113.637,17.191,114.59,17.191z M112.932,23.408c0-0.885,0.363-1.656,1.658-1.656c1.293,0,1.656,0.771,1.656,1.656v9.144
			c0,0.885-0.363,1.656-1.656,1.656c-1.295,0-1.658-0.771-1.658-1.656V23.408z"/>
		<path d="M125.777,21.751c2.768,0,4.832,1.565,4.832,3.108c0,0.953-0.703,1.429-1.543,1.429c-1.564,0-0.998-1.951-3.381-1.951
			c-1.293,0-2.813,0.885-2.813,3.88c0,2.064,0.975,3.403,2.791,3.403c2.314,0,1.814-2.133,3.563-2.133
			c0.84,0,1.383,0.613,1.383,1.271c0,1.452-1.633,3.449-5.037,3.449c-4.084,0-6.012-2.519-6.012-5.99
			C119.561,24.406,121.715,21.751,125.777,21.751z"/>
		<path d="M137.967,21.751c2.518,0,5.059,0.998,5.059,2.519c0,0.771-0.521,1.452-1.383,1.452c-1.295,0-1.34-1.521-3.428-1.521
			c-1.156,0-1.906,0.318-1.906,1.021c0,0.771,0.75,0.953,1.771,1.18l1.383,0.318c1.883,0.431,4.131,1.225,4.131,3.539
			c0,2.7-2.609,3.948-5.105,3.948c-2.996,0-5.492-1.339-5.492-2.973c0-0.726,0.408-1.384,1.34-1.384c1.43,0,1.564,2.042,4.016,2.042
			c1.18,0,1.928-0.521,1.928-1.202c0-0.84-0.725-0.976-1.904-1.271l-1.951-0.477c-1.93-0.477-3.428-1.271-3.428-3.495
			C132.996,22.75,135.674,21.751,137.967,21.751z"/>
	</g>
</g>
</svg>
